<?xml version="1.0" encoding="utf-8"?>
<!-- Generator: Adobe Illustrator 15.0.0, SVG Export Plug-In . SVG Version: 6.00 Build 0)  -->
<!DOCTYPE svg PUBLIC "-//W3C//DTD SVG 1.1//EN" "http://www.w3.org/Graphics/SVG/1.1/DTD/svg11.dtd">
<svg version="1.1" id="Layer_1" xmlns="http://www.w3.org/2000/svg" xmlns:xlink="http://www.w3.org/1999/xlink" x="0px" y="0px"
	 width="760px" height="800px" viewBox="0 0 760 800" enable-background="new 0 0 760 800" xml:space="preserve">
<g>
	<defs>
		<rect id="SVGID_1_" width="760" height="800"/>
	</defs>
	<clipPath id="SVGID_2_">
		<use xlink:href="#SVGID_1_"  overflow="visible"/>
	</clipPath>
	<g clip-path="url(#SVGID_2_)">
		<linearGradient id="SVGID_3_" gradientUnits="userSpaceOnUse" x1="-9.9995" y1="790.001" x2="770.0005" y2="10.0009">
			<stop  offset="0" style="stop-color:#9EE3FF"/>
			<stop  offset="0.1107" style="stop-color:#A7E6FF"/>
			<stop  offset="0.2926" style="stop-color:#C0EDFF"/>
			<stop  offset="0.5216" style="stop-color:#E8F8FF"/>
			<stop  offset="0.6385" style="stop-color:#FFFFFF"/>
			<stop  offset="1" style="stop-color:#FFFFFF"/>
		</linearGradient>
		<rect fill="url(#SVGID_3_)" width="760" height="800"/>
		<g>
			
				<linearGradient id="SVGID_4_" gradientUnits="userSpaceOnUse" x1="-207.6772" y1="727.5244" x2="-60.6387" y2="727.5244" gradientTransform="matrix(-0.8164 0.5775 -0.5775 -0.8164 294.5902 1157.7156)">
				<stop  offset="0" style="stop-color:#FFFFFF"/>
				<stop  offset="1" style="stop-color:#A8A8A8"/>
			</linearGradient>
			<polygon fill="url(#SVGID_4_)" points="-372.014,110.345 -252.007,25.449 339.958,862.229 219.951,947.126 			"/>
			
				<linearGradient id="SVGID_5_" gradientUnits="userSpaceOnUse" x1="-285.4473" y1="481.3672" x2="-138.4424" y2="481.3672" gradientTransform="matrix(-0.5111 0.8595 -0.8595 -0.5111 517.371 1083.9718)">
				<stop  offset="0" style="stop-color:#FFFFFF"/>
				<stop  offset="1" style="stop-color:#A8A8A8"/>
			</linearGradient>
			<polygon fill="url(#SVGID_5_)" points="-266.108,457.011 -190.975,330.662 690.029,854.547 614.896,980.896 			"/>
			
				<linearGradient id="SVGID_6_" gradientUnits="userSpaceOnUse" x1="-599.2202" y1="457.5225" x2="-452.2153" y2="457.5225" gradientTransform="matrix(-0.3316 0.9434 -0.9434 -0.3316 629.7516 1043.9684)">
				<stop  offset="0" style="stop-color:#FFFFFF"/>
				<stop  offset="1" style="stop-color:#A8A8A8"/>
			</linearGradient>
			<polygon fill="url(#SVGID_6_)" points="-135.422,295.684 -86.675,157.001 880.327,496.9 831.581,635.582 			"/>
			
				<linearGradient id="SVGID_7_" gradientUnits="userSpaceOnUse" x1="-589.3086" y1="478.4775" x2="-442.3032" y2="478.4775" gradientTransform="matrix(-0.5383 0.8428 -0.8428 -0.5383 498.0551 1088.5767)">
				<stop  offset="0" style="stop-color:#FFFFFF"/>
				<stop  offset="1" style="stop-color:#A8A8A8"/>
			</linearGradient>
			<polygon fill="url(#SVGID_7_)" points="-99.026,182.362 -19.898,58.477 843.932,610.222 764.804,734.107 			"/>
			
				<linearGradient id="SVGID_8_" gradientUnits="userSpaceOnUse" x1="-316.4082" y1="692.7031" x2="-169.3853" y2="692.7031" gradientTransform="matrix(-1.3198 1.124 -0.6484 -0.7613 298.3361 1203.4576)">
				<stop  offset="0" style="stop-color:#FFFFFF"/>
				<stop  offset="1" style="stop-color:#A8A8A8"/>
			</linearGradient>
			<polygon fill="url(#SVGID_8_)" points="-259.534,95.521 -65.521,-69.707 599.06,710.65 405.047,875.879 			"/>
			
				<linearGradient id="SVGID_9_" gradientUnits="userSpaceOnUse" x1="-368.7051" y1="518.8701" x2="-221.688" y2="518.8701" gradientTransform="matrix(-0.7346 1.5702 -0.9058 -0.4238 600.1411 1126.4169)">
				<stop  offset="0" style="stop-color:#FFFFFF"/>
				<stop  offset="1" style="stop-color:#A8A8A8"/>
			</linearGradient>
			<polygon fill="url(#SVGID_9_)" points="-171.204,341.237 -63.214,110.414 865.204,544.77 757.214,775.593 			"/>
			
				<linearGradient id="SVGID_10_" gradientUnits="userSpaceOnUse" x1="-403.6074" y1="497.5176" x2="-256.6045" y2="497.5176" gradientTransform="matrix(0.014 1.7335 -1 0.0081 849.1392 955.5079)">
				<stop  offset="0" style="stop-color:#FFFFFF"/>
				<stop  offset="1" style="stop-color:#A8A8A8"/>
			</linearGradient>
			<polygon fill="url(#SVGID_10_)" points="-164.451,518.862 -166.515,264.035 858.451,255.734 860.515,510.562 			"/>
			
				<linearGradient id="SVGID_11_" gradientUnits="userSpaceOnUse" x1="-214.2705" y1="387.4736" x2="-67.2471" y2="387.4736" gradientTransform="matrix(0.3045 1.7066 -0.9844 0.1757 867.287 885.5674)">
				<stop  offset="0" style="stop-color:#A8A8A8"/>
				<stop  offset="1" style="stop-color:#FFFFFF"/>
			</linearGradient>
			<polygon fill="url(#SVGID_11_)" points="-39.149,928.896 -83.917,678.022 925.144,497.959 969.911,748.832 			"/>
			
				<linearGradient id="SVGID_12_" gradientUnits="userSpaceOnUse" x1="-457.0591" y1="267.1216" x2="-310.0493" y2="267.1216" gradientTransform="matrix(0.2583 1.0805 -0.9726 0.2325 753.8264 850.2838)">
				<stop  offset="0" style="stop-color:#FFFFFF"/>
				<stop  offset="1" style="stop-color:#A8A8A8"/>
			</linearGradient>
			<polygon fill="url(#SVGID_12_)" points="-84.518,696.537 -122.488,537.701 874.421,299.381 912.393,458.218 			"/>
			
				<linearGradient id="SVGID_13_" gradientUnits="userSpaceOnUse" x1="-276.8813" y1="322.3691" x2="-129.8765" y2="322.3691" gradientTransform="matrix(0.6453 1.609 -0.9281 0.3722 873.4284 819.3152)">
				<stop  offset="0" style="stop-color:#FFFFFF"/>
				<stop  offset="1" style="stop-color:#A8A8A8"/>
			</linearGradient>
			<polygon fill="url(#SVGID_13_)" points="14.752,921.092 -80.104,684.567 871.242,303.036 966.099,539.561 			"/>
			
				<linearGradient id="SVGID_14_" gradientUnits="userSpaceOnUse" x1="-267.3535" y1="1091.3311" x2="106.3895" y2="1091.3311" gradientTransform="matrix(0.3285 -0.9444 0.9444 0.3285 -965.4461 258.5916)">
				<stop  offset="0" style="stop-color:#B0B0B0"/>
				<stop  offset="0.4676" style="stop-color:#C4C4C4"/>
				<stop  offset="1" style="stop-color:#E0E0E0"/>
			</linearGradient>
			<path fill="url(#SVGID_14_)" d="M-323.566,447.037l697.419,560.453l6.147-7.648c-1.154-15.354-2.317-30.71-3.493-46.063
				c-2.698-35.219-5.452-70.434-8.237-105.645l-649.183-405.131C-295.149,444.051-309.364,445.6-323.566,447.037z"/>
			
				<linearGradient id="SVGID_15_" gradientUnits="userSpaceOnUse" x1="-64.7661" y1="1314.0762" x2="308.9373" y2="1314.0762" gradientTransform="matrix(0.6616 -1.0968 1.1394 0.6495 -1306.3762 -176.9847)">
				<stop  offset="0" style="stop-color:#B0B0B0"/>
				<stop  offset="0.4676" style="stop-color:#C4C4C4"/>
				<stop  offset="1" style="stop-color:#E0E0E0"/>
			</linearGradient>
			<path fill="url(#SVGID_15_)" d="M-135.422,143.463l761.778,876.742l9.868-8c2.354-19.476,4.695-38.953,7.02-58.434
				c5.332-44.683,10.591-89.375,15.809-134.07l-738.288-670.48C-97.914,146.926-116.69,145.263-135.422,143.463z"/>
			
				<linearGradient id="SVGID_16_" gradientUnits="userSpaceOnUse" x1="-320.7241" y1="1657.3066" x2="52.9799" y2="1657.3066" gradientTransform="matrix(-1.0871 -0.6773 0.6659 -1.1299 -613.9501 2548.5571)">
				<stop  offset="0" style="stop-color:#B0B0B0"/>
				<stop  offset="0.4676" style="stop-color:#C4C4C4"/>
				<stop  offset="1" style="stop-color:#E0E0E0"/>
			</linearGradient>
			<path fill="url(#SVGID_16_)" d="M230.209,1167.909l887.645-749.046l-7.856-9.981c-19.439-2.635-38.882-5.257-58.326-7.862
				c-44.602-5.977-89.213-11.88-133.828-17.742l-681.066,728.534C234.213,1130.455,232.279,1149.205,230.209,1167.909z"/>
			
				<linearGradient id="SVGID_17_" gradientUnits="userSpaceOnUse" x1="-637.5679" y1="388.7061" x2="-490.5386" y2="388.7061" gradientTransform="matrix(0.142 0.9899 -0.9899 0.142 898.7028 979.3323)">
				<stop  offset="0" style="stop-color:#FFFFFF"/>
				<stop  offset="1" style="stop-color:#A8A8A8"/>
			</linearGradient>
			<polygon fill="url(#SVGID_17_)" points="-63.048,621.685 -83.917,476.173 930.702,330.662 951.57,476.173 			"/>
		</g>
	</g>
</g>
</svg>
